# Blender 4.2.1 LTS
# www.blender.org
mtllib broom.mtl
o Cube
v 1.000000 1.000000 -4.168272
v 0.835615 -1.000000 -4.003887
v 1.000000 1.000000 4.168272
v 0.835615 -1.000000 4.003887
v -1.000000 1.000000 -4.168272
v -0.835615 -1.000000 -4.003887
v -1.000000 1.000000 4.168272
v -0.835615 -1.000000 4.003887
v -1.000000 -1.000000 -4.168272
v -1.000000 -1.000000 4.168272
v 1.000000 -1.000000 -4.168272
v 1.000000 -1.000000 4.168272
v -0.835615 -5.148743 -4.003887
v -0.835615 -5.148743 4.003887
v 0.835615 -5.148743 -4.003887
v 0.835615 -5.148743 4.003887
v 0.000000 -0.127506 -0.790000
v 0.000000 20.593073 -0.790000
v 0.790000 -0.127506 0.000000
v 0.790000 20.593073 0.000000
v 0.000000 -0.127506 0.790000
v 0.000000 20.593073 0.790000
v -0.790000 -0.127506 0.000000
v -0.790000 20.593073 0.000000
v 0.835615 -1.691457 -4.003887
v 0.835615 -2.382914 -4.003887
v 0.835615 -3.074371 -4.003887
v 0.835615 -3.765829 -4.003887
v 0.835615 -4.457286 -4.003887
v -0.835615 -4.457285 -4.003887
v -0.835615 -3.765828 -4.003887
v -0.835615 -3.074371 -4.003887
v -0.835615 -2.382914 -4.003887
v -0.835615 -1.691457 -4.003887
v -0.835615 -1.691457 4.003887
v -0.835615 -2.382914 4.003887
v -0.835615 -3.074371 4.003887
v -0.835615 -3.765829 4.003887
v -0.835615 -4.457286 4.003887
v 0.835615 -4.457285 4.003887
v 0.835615 -3.765828 4.003887
v 0.835615 -3.074371 4.003887
v 0.835615 -2.382914 4.003887
v 0.835615 -1.691457 4.003887
vn -0.0000 1.0000 -0.0000
vn -0.0000 -0.0000 1.0000
vn -1.0000 -0.0000 -0.0000
vn -0.0000 -0.0000 -1.0000
vn 1.0000 -0.0000 -0.0000
vn -0.0000 -1.0000 -0.0000
vn 0.7071 -0.0000 -0.7071
vn 0.7071 -0.0000 0.7071
vn -0.7071 -0.0000 0.7071
vn -0.7071 -0.0000 -0.7071
vt 0.675571 0.822117
vt 0.585747 0.822117
vt 0.585747 0.447705
vt 0.675571 0.447705
vt 0.378511 0.970647
vt 0.288687 0.970647
vt 0.288687 0.880823
vt 0.378511 0.880823
vt 0.378511 0.822117
vt 0.288687 0.822117
vt 0.288687 0.447705
vt 0.378511 0.447705
vt 0.882806 0.602979
vt 0.957865 0.602979
vt 0.957865 0.634034
vt 0.882806 0.634034
vt 0.527041 0.822117
vt 0.437217 0.822117
vt 0.437217 0.447705
vt 0.527041 0.447705
vt 0.527041 0.970647
vt 0.437217 0.970647
vt 0.437217 0.880823
vt 0.527041 0.880823
vt 0.816718 0.814734
vt 0.816718 0.455088
vt 0.824101 0.447705
vt 0.824101 0.822117
vt 0.741659 0.814734
vt 0.734276 0.822117
vt 0.741659 0.455088
vt 0.734276 0.447705
vt 0.853815 0.388999
vt 0.778756 0.388999
vt 0.778756 0.029353
vt 0.853815 0.029353
vt 0.882806 0.848014
vt 0.957865 0.848014
vt 0.957865 0.879069
vt 0.882806 0.879069
vt 0.443961 0.388999
vt 0.443961 0.029353
vt 0.475016 0.029353
vt 0.475016 0.388999
vt 0.688995 0.388999
vt 0.688995 0.029353
vt 0.720050 0.029353
vt 0.720050 0.388999
vt 0.029353 0.959959
vt 0.029353 0.029353
vt 0.064833 0.029353
vt 0.064833 0.959959
vt 0.100314 0.029353
vt 0.100314 0.959959
vt 0.635924 0.931000
vt 0.585746 0.931000
vt 0.585746 0.880823
vt 0.635924 0.880823
vt 0.159020 0.959959
vt 0.159020 0.029353
vt 0.194500 0.029353
vt 0.194500 0.959959
vt 0.229981 0.029353
vt 0.229981 0.959959
vt 0.694629 0.931000
vt 0.694629 0.880823
vt 0.744806 0.880823
vt 0.744806 0.931000
vt 0.533721 0.388999
vt 0.533721 0.029353
vt 0.564776 0.029353
vt 0.564776 0.388999
vt 0.595831 0.029353
vt 0.595831 0.388999
vt 0.626886 0.029353
vt 0.626886 0.388999
vt 0.657941 0.029353
vt 0.657941 0.388999
vt 0.288687 0.388999
vt 0.288687 0.029353
vt 0.319741 0.029353
vt 0.319741 0.388999
vt 0.350796 0.029353
vt 0.350796 0.388999
vt 0.381851 0.029353
vt 0.381851 0.388999
vt 0.412906 0.029353
vt 0.412906 0.388999
vt 0.882806 0.692740
vt 0.957865 0.692740
vt 0.957865 0.723794
vt 0.882806 0.723794
vt 0.957865 0.754849
vt 0.882806 0.754849
vt 0.957865 0.785904
vt 0.882806 0.785904
vt 0.957865 0.816959
vt 0.882806 0.816959
vt 0.882806 0.447705
vt 0.957865 0.447705
vt 0.957865 0.478760
vt 0.882806 0.478760
vt 0.957865 0.509815
vt 0.882806 0.509815
vt 0.957865 0.540869
vt 0.882806 0.540869
vt 0.957865 0.571924
vt 0.882806 0.571924
s 0
usemtl Material
f 1/1/1 5/2/1 7/3/1 3/4/1
f 12/5/2 3/6/2 7/7/2 10/8/2
f 10/9/3 7/10/3 5/11/3 9/12/3
f 30/13/4 29/14/4 15/15/4 13/16/4
f 11/17/5 1/18/5 3/19/5 12/20/5
f 9/21/4 5/22/4 1/23/4 11/24/4
f 6/25/6 8/26/6 10/27/6 9/28/6
f 2/29/6 6/25/6 9/28/6 11/30/6
f 8/26/6 4/31/6 12/32/6 10/27/6
f 4/31/6 2/29/6 11/30/6 12/32/6
f 13/33/6 15/34/6 16/35/6 14/36/6
f 40/37/2 39/38/2 14/39/2 16/40/2
f 39/41/3 30/42/3 13/43/3 14/44/3
f 29/45/5 40/46/5 16/47/5 15/48/5
f 17/49/7 18/50/7 20/51/7 19/52/7
f 19/52/8 20/51/8 22/53/8 21/54/8
f 20/55/1 18/56/1 24/57/1 22/58/1
f 21/59/9 22/60/9 24/61/9 23/62/9
f 23/62/10 24/61/10 18/63/10 17/64/10
f 17/65/6 19/66/6 21/67/6 23/68/6
f 2/69/5 4/70/5 44/71/5 25/72/5
f 25/72/5 44/71/5 43/73/5 26/74/5
f 26/74/5 43/73/5 42/75/5 27/76/5
f 27/76/5 42/75/5 41/77/5 28/78/5
f 28/78/5 41/77/5 40/46/5 29/45/5
f 8/79/3 6/80/3 34/81/3 35/82/3
f 35/82/3 34/81/3 33/83/3 36/84/3
f 36/84/3 33/83/3 32/85/3 37/86/3
f 37/86/3 32/85/3 31/87/3 38/88/3
f 38/88/3 31/87/3 30/42/3 39/41/3
f 4/89/2 8/90/2 35/91/2 44/92/2
f 44/92/2 35/91/2 36/93/2 43/94/2
f 43/94/2 36/93/2 37/95/2 42/96/2
f 42/96/2 37/95/2 38/97/2 41/98/2
f 41/98/2 38/97/2 39/38/2 40/37/2
f 6/99/4 2/100/4 25/101/4 34/102/4
f 34/102/4 25/101/4 26/103/4 33/104/4
f 33/104/4 26/103/4 27/105/4 32/106/4
f 32/106/4 27/105/4 28/107/4 31/108/4
f 31/108/4 28/107/4 29/14/4 30/13/4
